<svg xmlns="http://www.w3.org/2000/svg" width="44" height="46" fill="none"><path stroke="#000" stroke-linecap="round" stroke-linejoin="round" stroke-width="2" d="M1 12.2c0-3.92 0-5.88.763-7.378a7 7 0 0 1 3.06-3.059C6.318 1 8.28 1 12.2 1h19.6c3.92 0 5.88 0 7.378.763a7 7 0 0 1 3.059 3.06C43 6.318 43 8.28 43 12.2v12.6c0 3.92 0 5.88-.763 7.378a7 7 0 0 1-3.06 3.059C37.682 36 35.72 36 31.8 36H16.595c-1.456 0-2.184 0-2.88.143a6.997 6.997 0 0 0-1.777.623c-.634.324-1.202.779-2.34 1.688l-5.565 4.453c-.971.777-1.457 1.165-1.865 1.166-.355 0-.691-.162-.913-.44C1 43.315 1 42.694 1 41.45V12.2Z"/></svg>