<svg xmlns="http://www.w3.org/2000/svg" width="277" height="29" fill="none"><path fill="#fff" d="M18.922 15.332c-1.704 4.928-6.389 11.438-9.857 12.534-.365-1.582-.486-6.571-.486-7.484v-6.267c0-1.703.365-7.97 1.156-9.43H0c.79 1.46 1.156 7.727 1.156 9.43v4.929c0 1.642-.365 7.787-1.156 9.308h17.766c.122 0 .182-.06.182-.182.122-1.095.791-8.579 1.217-12.777 0-.122-.182-.183-.243-.06ZM28.024 24.093s-.06-12.837-.06-14.602c-1.643 1.886-5.111 2.19-7.058 2.19-.852 0-1.46-.06-1.46-.06.669 1.338 1.156 2.494 1.156 4.198v8.274c0 1.643-.365 2.738-1.156 4.199h9.734c-.79-1.46-1.156-2.556-1.156-4.199ZM24.191 9.248c2.069 0 3.833-1.764 3.833-3.833 0-2.13-1.764-3.833-3.833-3.833-2.13 0-3.893 1.703-3.893 3.833 0 2.069 1.764 3.833 3.893 3.833ZM29.49 10.282c0 .244.182.426.365.426h2.19c0 .365-.061.73-.061 1.156v12.23c0 1.642-.365 2.737-1.156 4.198h9.735c-.73-1.46-1.156-2.556-1.156-4.199V10.708h2.068c.244 0 .365-.182.365-.426V10.1c0-.244-.121-.426-.365-.426h-2.25c-.548-2.13-1.887-5.963.912-5.963h.304c2.434.183 4.016 4.138 4.076 6.51 0 .122.122.183.244.061.73-.912 3.103-3.224 3.894-4.137a.52.52 0 0 0 0-.426c-1.46-2.19-5.111-3.407-7.97-3.407-.305 0-.548.06-.792.06-3.285.183-7.057 1.461-7.727 7.302h-2.311c-.183 0-.366.182-.366.426v.182Z"/><path fill="#fff" d="M50.911 15.15c.061-1.947.913-5.05 2.8-4.99 1.825.062 2.555 3.225 2.25 4.807-.425 2.799-2.494 4.563-4.015 5.05-.73-1.338-1.095-3.042-1.035-4.867Zm12.169 6.814c-1.339 1.338-3.225 1.886-5.05 1.886-2.495 0-4.502-1.217-5.72-3.164 2.921-.243 9.066-1.642 9.675-5.78.486-3.042-2.799-5.78-7.119-5.78-.243 0-.547.061-.79.061-6.998.365-9.553 5.72-9.31 10.283.305 5.962 4.564 9.37 10.344 9.37 4.198-.183 7.848-3.104 8.274-6.754 0-.122-.06-.183-.182-.183 0 0-.061 0-.122.061ZM95 21.051c-1.096 2.312-3.834 4.381-6.45 4.381-5.84-.243-7.666-7.484-6.814-14.298.243-2.19 1.399-5.84 4.076-5.84 2.434.182 3.164 5.17 2.86 9.43 0 .304.182.547.486.547.061 0 .122-.06.183-.06 1.521-.73 4.806-2.982 5.962-3.59a.49.49 0 0 0 .183-.548c-1.521-4.685-5.233-6.997-10.039-6.997-7.118 0-11.317 5.659-11.743 11.56-.425 6.876 3.955 12.656 11.439 13.264h.79c4.807 0 9.188-2.981 10.1-7.301.183-.73-.06-1.034-.365-1.034-.243 0-.486.182-.669.486ZM106.768 28.048c-1.582 0-2.251-4.198-2.312-9.004-.06-4.807.487-9.005 2.191-9.005 1.703-.06 2.251 4.137 2.312 8.944.061 4.806-.609 9.065-2.191 9.065Zm2.556-18.496a10.49 10.49 0 0 0-2.677-.365c-4.381 0-8.336 2.799-9.553 7.119-1.46 5.232 1.704 10.708 6.997 12.168.913.244 1.826.365 2.738.365 4.32 0 8.275-2.799 9.492-7.118 1.46-5.233-1.704-10.648-6.997-12.169ZM125.654 26.345c-1.461-.305-1.826-2.008-1.704-3.65.243-4.199 3.59-6.085 4.989-6.45v7.666c0 .182 0 .365.061.547-.73.974-1.886 1.948-2.92 1.948-.183 0-.305 0-.426-.061Zm11.621 2.007c-.731-1.46-1.157-2.433-1.157-4.015V18.13c0-7.788-5.962-8.944-9.613-8.944-2.007 0-5.415 1.035-6.996 3.407-.122.183-.122.365 0 .487.486.67 1.764 2.312 2.312 3.103.121.122.243.06.243-.06.061-2.374 1.339-5.477 3.772-5.72h.365c3.225 0 2.86 4.198 2.738 5.293-1.278.122-11.621 1.886-11.621 8.64 0 3.529 2.799 4.502 5.841 4.502 2.981-.182 5.05-2.251 5.902-3.65.243 1.825 1.278 3.163 3.468 3.163h4.746ZM156.153 22.877c-1.217.973-2.86 1.399-4.442 1.399-4.745 0-7.666-4.259-6.936-9.491.244-1.947 1.46-4.807 3.347-4.685 1.946.182 3.346 4.745 3.102 8.092 0 .243.183.426.366.426.06 0 .121 0 .182-.061 1.339-.913 3.103-2.616 4.016-3.407.182-.122.243-.244.182-.426-1.399-3.468-4.563-5.537-8.274-5.537-5.72 0-9.127 4.503-9.492 9.187-.304 5.415 3.225 10.04 9.309 10.465 3.833 0 7.97-1.643 8.944-5.78 0-.182-.183-.304-.304-.182ZM167.109 28.292c-.791-1.46-1.156-2.556-1.156-4.199V16.61c-.122-2.434.608-5.476 2.555-5.78 2.677 0 2.86 3.103 2.86 5.171v7.91c0 2.555.852 4.38 3.59 4.38h4.745c-.791-1.338-1.156-2.372-1.156-3.954v-6.145c0-5.11-2.312-9.066-7.787-9.066-2.373.122-4.016 1.46-4.807 3.225l-.061-10.039-8.518 2.434c.791 1.46 1.156 2.555 1.156 4.198v15.15c0 1.642-.365 2.737-1.156 4.198h9.735ZM191.806 14.115v4.868c0 1.703-.365 7.848-1.156 9.37h9.734c-.73-1.522-1.156-7.667-1.156-9.37v-.426c2.312.365 4.138 7.605 4.503 8.396.243.548.121 1.156-.244 1.4h11.256c-1.521-1.096-2.373-2.13-3.103-3.164-1.643-2.312-4.563-6.754-5.05-7.545 3.164-1.034 5.598-2.92 5.598-6.206 0-5.293-5.963-6.753-12.655-6.753h-8.883c.791 1.46 1.156 7.727 1.156 9.43Zm7.483-8.64c.183-.06.426-.06.609-.06 3.285 0 4.867 2.494 4.867 5.78.061 3.65-1.764 6.45-4.928 6.693h-.609l.061-12.412Z"/><path fill="#fff" d="M218.862 15.15c.061-1.947.912-5.05 2.799-4.99 1.825.062 2.555 3.225 2.251 4.807-.426 2.799-2.495 4.563-4.016 5.05-.73-1.338-1.095-3.042-1.034-4.867Zm12.168 6.814c-1.338 1.338-3.224 1.886-5.05 1.886-2.494 0-4.502-1.217-5.719-3.164 2.921-.243 9.066-1.642 9.674-5.78.487-3.042-2.799-5.78-7.118-5.78-.244 0-.548.061-.791.061-6.997.365-9.553 5.72-9.309 10.283.304 5.962 4.563 9.37 10.343 9.37 4.198-.183 7.849-3.104 8.275-6.754 0-.122-.061-.183-.183-.183 0 0-.061 0-.122.061ZM231.635 4.989c0 2.495 2.129 4.442 4.441 4.442 2.982 0 4.503-2.312 4.624-3.164 0-.122-.06-.244-.182-.244-.913 0-1.46-.912-1.46-1.764 0-.913.547-1.886 1.825-1.886.122 0 .243.06.426.06 2.616.366 4.259 3.225 4.259 7.24v9.249c0 1.643.182 8.457-1.156 9.309h9.734c-.73-.244-.973-3.042-1.095-5.537 1.217 1.704 2.86 3.894 3.042 4.198.305.487.061 1.156-.243 1.4h11.073c-1.156-1.096-2.251-2.252-3.103-3.164-1.582-1.704-6.145-7.788-7.727-9.857 1.339-2.068 2.738-3.772 3.651-3.894.182 0 .304-.06.426-.06 1.947 0 1.703 2.86 1.764 5.11 0 .122.122.122.244.061.547-.79 3.163-4.867 3.65-5.536.061-.122.122-.305 0-.487-.973-1.278-2.312-1.643-3.468-1.643-.304 0-.669 0-.912.061-2.252.426-4.807 3.468-8.518 9.674 0-2.008-.183-11.621 1.216-13.994-.73.183-1.946.365-2.129.426-.304.06-.548.06-.852.06-4.441 0-7.301-4.44-12.716-4.988-.365-.061-.73-.061-1.034-.061-3.346 0-5.78 1.825-5.78 4.989Zm10.221 23.303c-.73-1.522-1.156-2.617-1.156-4.26V9.432c-1.703 1.886-5.11 2.19-7.057 2.19-.913 0-1.461-.061-1.461-.061.609 1.338 1.096 2.495 1.096 4.198v8.275c0 1.642-.365 2.737-1.156 4.259h9.734Z"/><path fill="#fff" d="M274.884 24.093s-.061-12.837-.061-14.602c-1.642 1.886-5.11 2.19-7.057 2.19-.852 0-1.461-.06-1.461-.06.67 1.338 1.156 2.494 1.156 4.198v8.274c0 1.643-.365 2.738-1.156 4.199h9.735c-.791-1.46-1.156-2.556-1.156-4.199Zm-3.833-14.845c2.069 0 3.833-1.764 3.833-3.833 0-2.13-1.764-3.833-3.833-3.833-2.129 0-3.894 1.703-3.894 3.833 0 2.069 1.765 3.833 3.894 3.833Z"/></svg>