<svg xmlns="http://www.w3.org/2000/svg" width="40" height="40" fill="none"><path stroke="#DE5217" stroke-linecap="round" stroke-linejoin="round" stroke-width="2" d="M16.667 13.337a3.747 3.747 0 0 1 7.282 1.25c0 2.497-3.748 3.746-3.748 3.746m.049 5h.017M11.667 30v3.892c0 .889 0 1.333.182 1.56a.833.833 0 0 0 .652.314c.292 0 .639-.278 1.332-.832l3.976-3.18c.812-.65 1.218-.976 1.67-1.207a5.004 5.004 0 0 1 1.27-.445C21.246 30 21.766 30 22.806 30H27c2.8 0 4.2 0 5.27-.545a5 5 0 0 0 2.185-2.185C35 26.2 35 24.8 35 22v-9c0-2.8 0-4.2-.545-5.27a5 5 0 0 0-2.185-2.185C31.2 5 29.8 5 27 5H13c-2.8 0-4.2 0-5.27.545A5 5 0 0 0 5.545 7.73C5 8.8 5 10.2 5 13v10.333c0 1.55 0 2.325.17 2.961a5 5 0 0 0 3.536 3.536c.636.17 1.41.17 2.96.17Z"/></svg>