<svg xmlns="http://www.w3.org/2000/svg" width="40" height="36" fill="none"><path stroke="#DE5217" stroke-linecap="round" stroke-linejoin="round" stroke-width="2" d="M15 23s2.624 3 7 3c4.374 0 7-3 7-3m-1.5-10h.02M16.5 13h.02M22 35c9.388 0 17-7.611 17-17S31.387 1 22 1C12.61 1 5 8.611 5 18c0 1.9.31 3.727.886 5.433.216.642.325.963.344 1.21.02.243.005.414-.055.65-.061.24-.196.49-.466.989l-3.27 6.055c-.468.863-.7 1.295-.649 1.628a1 1 0 0 0 .468.7c.288.175.776.125 1.752.024l10.242-1.059c.31-.032.466-.048.607-.043.139.006.237.019.373.05.138.032.31.099.658.232C17.786 34.6 19.846 35 22 35Zm6.5-22a1 1 0 1 1-2 0 1 1 0 0 1 2 0Zm-11 0a1 1 0 1 1-2 0 1 1 0 0 1 2 0Z"/></svg>