<svg xmlns="http://www.w3.org/2000/svg" width="42" height="39" fill="none"><path stroke="#007CC2" stroke-linecap="round" stroke-linejoin="round" stroke-width="2" d="M28 19h-2l-3 6-4-12-3 6h-2m6.986-12.728C16.988 1.597 10.32.339 5.31 4.62.3 8.9-.406 16.058 3.53 21.12 6.5 24.946 14.942 32.623 18.895 36.15c.727.648 1.09.973 1.516 1.1.37.111.78.111 1.149 0 .425-.127.789-.452 1.516-1.1 3.953-3.528 12.395-11.205 15.367-15.03 3.935-5.062 3.315-12.264-1.78-16.5C31.566.384 24.984 1.597 20.985 6.272Z"/></svg>